Simulation
nRows=46
nColumns=15
endheader
time  TH_x TH_y TH_z SC_y  SC_z  SC_x  AC_y  AC_z  AC_x  GH_y  GH_z  GH_yy  EL_x  PS_y
8.073123595505619  0.000000  0.000000  0.000000  -36.09390143687238  16.85563771243522  22.085879902366724  57.86461432711285  7.276247373189015  10.185251855708493  -167.36751009272925  24.45636808570017  -129.93104094221965  16.81184007836756  120.000000
8.113288389513109  0.000000  0.000000  0.000000  -35.82767030614187  16.745692276659433  21.716290864047718  57.705392918194285  7.009545223357873  9.756340092683141  -168.53962300529008  23.403319841877927  -128.9010466003301  16.326551289075454  120.000000
8.153453183520599  0.000000  0.000000  0.000000  -35.5624567555118  16.63745988690229  21.41709141404468  57.501064827125894  6.8077242320781695  9.361694039117497  -170.40204070143585  22.23052105461201  -127.38313882526833  15.778714561660799  120.000000
8.19361797752809  0.000000  0.000000  0.000000  -35.30296721466059  16.540315995798185  21.194551208298687  57.26588930036657  6.675770666523503  9.015478241921906  -173.03337385488945  20.943201542737388  -125.30374896866432  15.188638772024815  120.000000
8.23378277153558  0.000000  0.000000  0.000000  -35.05474508370062  16.46188055020519  21.050579437404263  57.01627627191433  6.617823146066862  8.735336764961088  -176.56568981083586  19.558944530869866  -122.53676895503258  14.58150944212819  120.000000
8.273947565543072  0.000000  0.000000  0.000000  -34.82326253168822  16.406493838713693  20.98698981504961  56.76902678150512  6.6353456942459665  8.541792627340797  178.7966899765807  18.110786758004682  -118.88324134098602  13.983445550416143  120.000000
8.314112359550561  0.000000  0.000000  0.000000  -34.615837215099894  16.377331013777027  21.004219225101252  56.540618439160305  6.727022642074707  8.453048279187673  172.77673117969093  16.653895362948816  -114.06704380905457  13.417266335871197  120.000000
8.354277153558053  0.000000  0.000000  0.000000  -34.44192094303976  16.37840834532078  21.097998938558106  56.34637093683571  6.886904688239012  8.481762687000414  165.05215827720488  15.274030242372435  -107.75734522843037  12.899329350791566  120.000000
8.394441947565543  0.000000  0.000000  0.000000  -34.3099034156372  16.412248621035847  21.259828241474725  56.199761523815425  7.103544903178772  8.635536798528825  155.331056207993  14.094858920879249  -99.64419061024923  12.439044581537168  120.000000
8.434606741573035  0.000000  0.000000  0.000000  -34.22502882827664  16.47894293498236  21.47967452910485  56.1129420290637  7.36267475893506  8.91828444278897  143.5423641049363  13.27667121292413  -89.6311707967606  12.03972160537004  120.000000
8.474771535580524  0.000000  0.000000  0.000000  -34.18942358650485  16.576928372143957  21.747783747187224  56.09539668964604  7.650265313660097  9.330698937130238  130.15240915443172  12.98798239382738  -78.15370451932888  11.69979233701174  120.000000
8.514936329588014  0.000000  0.000000  0.000000  -34.20355779442828  16.70446715072873  22.055183704582294  56.15352470749943  7.954753944484927  9.86875759643106  116.28905914973924  13.344869529646743  -66.30610762589829  11.41416639493371  120.000000
8.555101123595506  0.000000  0.000000  0.000000  -34.26823719240131  16.859770034968193  22.393998507548492  56.289957462504546  8.267469176689787  10.522863219951095  103.29362930731685  14.356297766700054  -55.39690711167844  11.175851211197646  120.000000
8.595265917602996  0.000000  0.000000  0.000000  -34.384950577857666  17.0397774887835  22.757174975143805  56.502864515407346  8.582183919685324  11.279046633071712  92.03802991601385  15.929267963055908  -46.26831021651826  10.977481990564526  120.000000
8.635430711610487  0.000000  0.000000  0.000000  -34.554911296438014  17.240473515341364  23.138539530194187  56.78683347644342  8.895174297792394  12.119753904505886  82.72151706152728  17.925377039876977  -39.09452328885268  10.81238403098294  120.000000
8.675595505617977  0.000000  0.000000  0.000000  -34.77821904772325  17.457400294900978  23.532353435237912  57.13358439199898  9.205017242780318  13.025221430063148  75.12790991382892  20.209977418217598  -33.639541441630506  10.67513910664549  120.000000
8.715760299625469  0.000000  0.000000  0.000000  -35.05314832868772  17.685671482957556  23.932903008572872  57.532306272354745  9.51173961902402  13.974718103706513  68.91444554484508  22.67170303130031  -29.545616071642485  10.56143362904737  120.000000
8.755925093632959  0.000000  0.000000  0.000000  -35.37577515748964  17.919891840867873  24.334106774096604  57.97097342199575  9.816210382694413  14.94773505432884  63.76050823561212  25.223737538887757  -26.481196738342604  10.46826256930366  120.000000
8.79608988764045  0.000000  0.000000  0.000000  -35.73944625197104  18.154583791640892  24.729358909718535  58.43778877816805  10.119339574849251  15.925384280262756  59.41266813513913  27.799160191531143  -24.184512197344095  10.393993171256872  120.000000
8.83625468164794  0.000000  0.000000  0.000000  -36.134796710408295  18.384485251681678  25.111604561976403  58.92170658786928  10.421626755352298  16.89064232099247  55.68396282623193  30.345630520633385  -22.461838490520247  10.338025135243129  120.000000
8.87641947565543  0.000000  0.000000  0.000000  -36.551616665435375  18.60511794047309  25.47363638168965  59.41219036668661  10.722907426136066  17.828053109082358  52.439106240960385  32.82103136799228  -21.171755146415506  10.30018542217158  120.000000
8.916584269662922  0.000000  0.000000  0.000000  -36.98054410551459  18.813176877478316  25.80886489540377  59.898677930128954  11.022248091817264  18.72379134762149  49.58125764305599  35.19132561512662  -20.210904786703992  10.279962140540666  120.000000
8.956749063670411  0.000000  0.000000  0.000000  -37.413211337667015  19.006262745427208  26.11231636345376  60.370783454247764  11.318529743777498  19.56648411013278  47.042136025276974  37.42996252805476  -19.503155966569064  10.275977119170527  120.000000
8.996913857677903  0.000000  0.000000  0.000000  -37.84245576421705  19.18263609504181  26.381455913582464  60.8185846763679  11.610813002792602  20.348208522576506  44.77450215110376  39.51735451271893  -18.99116434390377  10.285867641521364  120.000000
9.037078651685393  0.000000  0.000000  0.000000  -38.26272336410176  19.34091153746176  26.61649472363989  61.23285564259199  11.89843428429731  21.064397246457965  42.74661904725272  41.44015023577711  -18.630398752844723  10.306119736383867  120.000000
9.077243445692885  0.000000  0.000000  0.000000  -38.67017109390318  19.479935094177957  26.820105871268918  61.60514280073147  12.180864536609171  21.713409579064187  40.93809121775251  43.190129695428496  -18.38509631196864  10.332191780281349  120.000000
9.117408239700374  0.000000  0.000000  0.000000  -39.06246768155385  19.598656265031465  26.99689466641634  61.927939510942004  12.457470271479988  22.295708839457983  39.336852816755005  44.76303166432397  -18.226031400019888  10.35903380738973  120.000000
9.157573033707866  0.000000  0.000000  0.000000  -39.43807977807553  19.696354409413743  27.152561561887474  62.194977233831764  12.727457975039991  22.81295211029623  37.936907118918896  46.15706796740892  -18.129452081049873  10.381782173745524  120.000000
9.197737827715356  0.000000  0.000000  0.000000  -39.79522209063116  19.77267337915342  27.292632128778404  62.40163469945213  12.989605860125415  23.267199059082554  36.73677225933156  47.37141341653587  -18.076891642114358  10.396567065543902  120.000000
9.237902621722846  0.000000  0.000000  0.000000  -40.13089988881114  19.827471002560397  27.42122979293491  62.54525224040849  13.241726890218205  23.660451829558774  35.73852509975664  48.40474333106751  -18.055338673143275  10.401226629504958  120.000000
9.278067415730337  0.000000  0.000000  0.000000  -40.44026244115543  19.86105419392929  27.54032349630191  62.62543618651566  13.480504274283732  23.994086588102252  34.94694796710624  49.254254116331545  -18.057259041017467  10.395599590499558  120.000000
9.318232209737827  0.000000  0.000000  0.000000  -40.71640352819132  19.874218186146525  27.649427010505725  62.6439989912919  13.701705707055591  24.268653407541088  34.368707335346286  49.915169694784154  -18.08005881412413  10.381227074799657  120.000000
9.358397003745319  0.000000  0.000000  0.000000  -40.95068203413425  19.868252845213444  27.74571688640647  62.604627301476086  13.900588837553633  24.48376976698277  34.01146540145194  50.38087184483427  -18.12511339795862  10.36058700746015  120.000000
9.398561797752809  0.000000  0.000000  0.000000  -41.13348768418101  19.844848824840604  27.824442875016157  62.51232040521237  14.072395841716927  24.638166394692327  33.883102411323456  50.64335249278572  -18.19644132097586  10.336032992138204  120.000000
9.4387265917603  0.000000  0.000000  0.000000  -41.255164428507065  19.805992958971277  27.87935244539494  62.37276525071042  14.212843493233832  24.729690718987484  33.99105392788577  50.69389942005513  -18.299479985514903  10.308820472305431  120.000000
9.47889138576779  0.000000  0.000000  0.000000  -41.306993551032974  19.753879905640833  27.903082435363583  62.19180618995825  14.318458861263322  24.75536219686226  34.34188206854038  50.52376242914176  -18.439918854826292  10.278439635039772  120.000000
9.519056179775282  0.000000  0.000000  0.000000  -41.281932460991776  19.690810184696417  27.88736172019524  61.975097442334864  14.386808198132462  24.71141912829397  34.941178014322496  50.1247846485419  -18.62316006036287  10.242594400111381  120.000000
9.559220973782772  0.000000  0.000000  0.000000  -41.17511253470939  19.61911915682813  27.823164286249447  61.72799720853188  14.416555747803287  24.593473780891657  35.793701253374984  49.48989997836027  -18.85406292062484  10.197905258811742  120.000000
9.599385767790261  0.000000  0.000000  0.000000  -40.98412378418579  19.541077157964185  27.700773489331645  61.4556068403285  14.40744045133504  24.39670323886977  36.90374529247426  48.613595012237866  -19.137328689636  10.141189858552433  120.000000
9.639550561797753  0.000000  0.000000  0.000000  -40.70928078115142  19.458732752136537  27.509987434891997  61.162802947888736  14.36013942018614  24.116168374302575  38.27549403387088  47.49227605574831  -19.477861040047376  10.071061947237942  120.000000
9.679715355805243  0.000000  0.000000  0.000000  -40.35391097537757  19.373712156111324  27.240410708449073  60.854218474259916  14.276126100894876  23.747183622201362  39.91347479403969  46.124844384642124  -19.88156224231057  9.989420097014317  120.000000
9.719880149812735  0.000000  0.000000  0.000000  -39.92460182934061  19.28673837906082  26.88214061559451  60.533919541977106  14.157521081808428  23.28606036542342  41.82293339625744  44.51326858657214  -20.355931095489304  9.902488269853071  120.000000
9.760044943820224  0.000000  0.000000  0.000000  -39.43144623630782  19.197403111105242  26.426758384514827  60.20518982664866  14.007298904304731  22.73076800469089  44.010430937524355  42.66365425525771  -20.911112306697067  9.820942750202498  120.000000
9.800209737827716  0.000000  0.000000  0.000000  -38.88790728641635  19.103704805728544  25.868538873221063  59.87019538411942  13.829558536696451  22.082099960238384  46.48477360581388  40.58709956613682  -21.561043816095868  9.75922101109436  120.000000
9.840374531835206  0.000000  0.000000  0.000000  -38.31041900159786  19.001651877799357  25.20542702801591  59.529857646864684  13.629634255059925  21.344504489738434  49.25838027553361  38.300968242921215  -22.325391221491834  9.734237069811002  120.000000
9.880539325842697  0.000000  0.000000  0.000000  -37.71810305417485  18.885368369287487  24.440102757313  59.183816415067405  13.414318551881701  20.52664146062145  52.34916526519425  35.829366829211615  -23.231950762525962  9.763803944714347  120.000000
